<?xml version="1.0" encoding="utf-8"?>
<!-- Generator: Adobe Illustrator 26.3.1, SVG Export Plug-In . SVG Version: 6.00 Build 0)  -->
<svg version="1.0" id="Layer_1" xmlns="http://www.w3.org/2000/svg" xmlns:xlink="http://www.w3.org/1999/xlink" x="0px" y="0px"
	 viewBox="0 0 125 75" enable-background="new 0 0 125 75" xml:space="preserve">
<g>
	<path d="M79.1,45.2c-1.2,0-2.4,0-3.7,0c0-1.4,0-2.8,0-4.2c0-1.4,0-2.7,0-4.1c0,0-0.1,0-0.1,0c-0.1,0.2-0.2,0.4-0.3,0.6
		c-0.9,2.4-1.9,4.7-2.8,7.1c-0.2,0.4-0.3,0.6-0.8,0.6c-1.9,0-1.9,0-2.7-1.8c-0.8-2-1.6-4-2.4-6c0-0.1-0.1-0.2-0.3-0.3
		c0,2.7,0,5.5,0,8.2c-1.3,0-2.4,0-3.7,0c0-4.9,0-9.8,0-14.8c1.5,0,3,0,4.5,0c0.3,0,0.6,0.5,0.8,0.9c0.9,2.4,1.8,4.8,2.7,7.2
		c0.1,0.2,0.2,0.4,0.3,0.7c1-2.6,1.9-5.2,2.9-7.7c0.4-1.1,0.5-1.2,1.7-1.2c1.2,0,2.5,0,3.7,0C79.1,35.3,79.1,40.2,79.1,45.2z"/>
	<path d="M31.2,45.1c0-1.7,0-3.5,0-5.2c0-2.8,0-5.5,0-8.3c0-1.1,0.2-1.3,1.3-1.3c1.8,0,3.5-0.1,5.3,0c3.7,0.2,6.6,3.4,6.8,7.2
		c0.1,3.7-2.6,7.2-6.3,7.6C36,45.3,33.6,45.1,31.2,45.1z M34.9,34c0,2.5,0,5,0,7.4c0.9,0,1.8,0.1,2.6,0c1.5-0.2,2.6-1.2,3-2.7
		c0.4-1.4-0.2-3-1.3-3.9C37.9,33.7,36.4,34,34.9,34z"/>
	<path d="M53.3,30.1c4.2,0,7.5,3.4,7.5,7.7c0,4.1-3.5,7.6-7.6,7.6c-4.2,0-7.4-3.5-7.4-7.8C45.8,33.5,49.2,30.1,53.3,30.1z
		 M53.3,41.5c2,0,3.7-1.7,3.7-3.8c0-2.2-1.7-3.9-3.8-3.9c-2.1,0-3.7,1.7-3.6,3.8C49.6,39.9,51.2,41.5,53.3,41.5z"/>
	<path d="M81.1,30.3c3.6,0,7,0,10.5,0c0,1.2,0,2.4,0,3.6c-2.2,0-4.5,0-6.7,0c0,0.7,0,1.2,0,1.9c1.8,0,3.7,0,5.5,0c0,1.1,0,2.1,0,3.1
		c-1.8,0-3.7,0-5.5,0c0,0.9,0,1.6,0,2.5c2.2,0,4.4,0,6.7,0c0,1.3,0,2.5,0,3.7c-0.2,0-0.4,0-0.6,0c-2.8,0-5.7,0-8.5,0
		c-1.1,0-1.4-0.3-1.4-1.4c0-4.2,0-8.4,0-12.7C81.1,30.9,81.1,30.6,81.1,30.3z"/>
	<path d="M125,42.8c-2.4,3.1-7.6,3.3-10.6,0.6c-3.3-3-3.3-8.2-0.1-11.3c3-2.9,8.1-2.7,10.6,0.4c-0.9,0.9-1.7,1.7-2.6,2.6
		c-2.1-1.6-4.2-1.6-5.6,0c-1.4,1.6-1.3,4,0.2,5.4c1.3,1.2,3.5,1.6,5.5-0.4c0.4,0.5,0.8,1,1.2,1.4C124.1,42,124.5,42.4,125,42.8z"/>
	<path d="M101.2,45.2c-1.4,0-2.7,0-4.1,0c0-3.7,0-7.4,0-11.1c-0.9,0-1.8,0-2.6,0c-1.2,0-1.4-0.2-1.5-1.4c0-0.7,0-1.4,0-2.3
		c4,0,8,0,12.1,0c0,1.2,0,2.4,0,3.7c-1.3,0-2.6,0-4,0C101.2,37.7,101.2,41.4,101.2,45.2z"/>
	<path d="M27.1,37.7c-1.9,1.9-3.7,3.7-5.6,5.6c-0.6,0.6-1.2,1.2-1.8,1.8c-0.7,0.7-1.1,0.7-1.8,0c-0.8-0.8-1.5-1.5-2.3-2.3
		c1.7-1.7,3.4-3.4,5.3-5.2c-0.5-0.4-1-0.7-1.4-1.1c-1.1-1-2.1-2.1-3.1-3.1c-0.6-0.6-0.6-1.1,0-1.7c0.8-0.8,1.5-1.6,2.2-2.4
		C21.5,32.2,24.3,34.9,27.1,37.7z"/>
	<path d="M13.5,40.9c-1.8-1.8-3.5-3.4-5.2-5.2c-0.7,0.7-1.4,1.4-2.1,2.1c-0.8,0.8-1.5,1.5-2.3,2.3c-0.6,0.5-1,0.6-1.6,0.1
		c-0.8-0.8-1.6-1.6-2.4-2.3c2.9-2.8,5.6-5.6,8.5-8.5c0.5,0.6,1.2,1.3,1.8,1.9c1.8,1.8,3.6,3.7,5.4,5.5c0.7,0.7,0.7,1.1,0,1.9
		C15.1,39.4,14.3,40.2,13.5,40.9z"/>
	<path d="M106.7,30.3c1.3,0,2.6,0,4,0c0,4.9,0,9.8,0,14.8c-1.3,0-2.6,0-4,0C106.7,40.2,106.7,35.3,106.7,30.3z"/>
</g>
</svg>
