<?xml version="1.0" encoding="utf-8"?>
<!-- Generator: Adobe Illustrator 26.3.1, SVG Export Plug-In . SVG Version: 6.00 Build 0)  -->
<svg version="1.0" id="Layer_1" xmlns="http://www.w3.org/2000/svg" xmlns:xlink="http://www.w3.org/1999/xlink" x="0px" y="0px"
	 viewBox="0 0 720 288" enable-background="new 0 0 720 288" xml:space="preserve">
<g>
	<path d="M305.3-93.8c-4.7,0-9,0-13.8,0c0-5.3,0-10.5,0-15.7c0-5.1,0-10.3,0-15.4c-0.1,0-0.3-0.1-0.4-0.1c-0.4,0.8-0.8,1.5-1.1,2.3
		c-3.5,8.8-7.1,17.7-10.5,26.5c-0.6,1.5-1.3,2.1-2.9,2.1c-7.3,0-7.3,0.1-10-6.8c-3-7.6-6-15.1-9.1-22.7c-0.2-0.5-0.5-0.9-1.1-1.2
		c0,10.3,0,20.6,0,31c-4.7,0-9.2,0-13.9,0c0-18.5,0-36.9,0-55.7c5.7,0,11.4-0.2,17.1,0.2c1.1,0.1,2.4,2,3,3.4
		c3.5,8.9,6.8,18,10.2,26.9c0.3,0.8,0.7,1.6,1.2,2.8c3.7-9.9,7.3-19.4,10.8-28.9c1.6-4.2,2-4.5,6.5-4.5c4.6,0,9.2,0,14.1,0
		C305.3-131.1,305.3-112.6,305.3-93.8z"/>
	<path d="M125.2-94.2c0-6.5,0-13,0-19.5c0-10.4,0-20.8,0-31.2c0-4.1,0.9-4.9,5-4.9c6.6,0,13.3-0.3,19.9,0.1
		c13.9,0.9,24.9,12.8,25.4,26.9c0.5,14.1-9.7,27.1-23.5,28.5C143.2-93.4,134.4-94.2,125.2-94.2z M139.3-136c0,9.4,0,18.6,0,27.8
		c3.4,0,6.7,0.3,9.9-0.1c5.7-0.6,9.9-4.6,11.3-10.2c1.4-5.2-0.7-11.4-4.9-14.7C150.7-137,145-135.9,139.3-136z"/>
	<path d="M208.5-150.5c15.8,0,28.2,12.7,28.3,28.8c0.1,15.5-13,28.6-28.7,28.5c-15.7,0-28-13-27.9-29.4
		C180.3-137.9,193.2-150.5,208.5-150.5z M208.6-107.6c7.7-0.1,13.9-6.5,13.9-14.1c0-8.4-6.3-14.7-14.3-14.6
		c-7.7,0.2-13.8,6.5-13.7,14.3C194.6-113.8,200.7-107.5,208.6-107.6z"/>
	<path d="M312.9-149.7c13.4,0,26.4,0,39.6,0c0,4.5,0,8.9,0,13.6c-8.4,0-16.8,0-25.3,0c0,2.5,0,4.6,0,7c6.9,0,13.8,0,20.8,0
		c0,4,0,7.8,0,11.8c-6.9,0-13.7,0-20.8,0c0,3.2,0,6.1,0,9.3c8.4,0,16.7,0,25.2,0c0,4.8,0,9.3,0,14.1c-0.8,0.1-1.6,0.1-2.4,0.1
		c-10.6,0-21.2,0-31.9,0c-4.2,0-5.3-1.1-5.3-5.3c0-15.9,0-31.8,0-47.6C312.9-147.6,312.9-148.5,312.9-149.7z"/>
	<path d="M478-102.7c-9.1,11.7-28.4,12.6-39.8,2.2c-12.3-11.3-12.5-30.9-0.3-42.4c11.4-10.8,30.5-10.1,39.8,1.4
		c-3.2,3.3-6.4,6.5-9.6,9.8c-7.8-6-15.9-6.1-21.1-0.1c-5.1,5.9-4.8,15,0.8,20.5c4.8,4.6,13.1,6,20.7-1.5c1.5,1.8,2.9,3.6,4.5,5.3
		C474.6-105.8,476.3-104.3,478-102.7z"/>
	<path d="M388.6-94c-5.3,0-10.2,0-15.2,0c0-13.9,0-27.6,0-41.9c-3.4,0-6.6,0-9.8,0c-4.5,0-5.4-0.9-5.5-5.4c0-2.7,0-5.4,0-8.5
		c15.2,0,30.3,0,45.5,0c0,4.5,0,9,0,13.7c-5,0-9.8,0-15,0C388.6-121.9,388.6-108.1,388.6-94z"/>
	<path d="M109.9-121.9c-7.1,7.1-14.1,14.1-21,21.1c-2.3,2.3-4.6,4.7-6.9,6.9c-2.6,2.5-4.2,2.5-6.7,0.1c-2.9-2.9-5.8-5.8-8.8-8.8
		c6.5-6.3,12.9-12.6,20.1-19.6c-2-1.6-3.7-2.8-5.2-4.2c-4-3.8-7.9-7.8-11.8-11.7c-2.3-2.4-2.3-4.1,0-6.5c2.8-3,5.7-6.1,8.4-9
		C88.9-142.8,99.3-132.4,109.9-121.9z"/>
	<path d="M59-109.8c-6.6-6.6-13-12.9-19.5-19.4c-2.7,2.7-5.3,5.3-7.9,7.9c-2.8,2.8-5.6,5.7-8.5,8.5c-2.1,2-3.9,2.1-6,0.2
		c-3.1-2.9-6.2-5.9-9.1-8.7c10.7-10.7,21.2-21.1,32.1-32c2,2.2,4.4,4.7,6.8,7.2c6.8,6.9,13.7,13.8,20.5,20.7
		c2.8,2.8,2.7,4.2-0.1,7.1C64.7-115.6,61.9-112.8,59-109.8z"/>
	<path d="M409.1-149.7c5,0,9.9,0,14.9,0c0,18.6,0,37,0,55.7c-4.9,0-9.8,0-14.9,0C409.1-112.5,409.1-130.9,409.1-149.7z"/>
</g>
<g>
	<path d="M-590-998c2.6-11.8,11-17.6,21.6-21.2c4.9-1.6,9.6-3.7,14.3-5.8c2.6-1.2,5.1-2.5,7.2-4.3c1.7-1.4,3.6-3.8,3.5-5.5
		c-0.1-1.4-3.1-2.8-5-3.8c-8.4-4.3-17.4-7.6-25.3-12.7c-10.7-7-16-17.5-15.2-30.7c0.5-7.9,4-13.7,11.3-16.8
		c7.5-3.1,14.6-2.1,20.3,3.6c3.3,3.3,5.8,7.7,7.9,11.9c2.8,5.7,4.7,11.7,7.1,17.5c0.7,1.7,1.2,3.6,2.4,4.9c2.4,2.5,5.2,4.7,7.9,6.9
		c1.5-2.6,3-5.2,4.4-7.9c4.5-8.5,8.1-17.6,13.5-25.4c7.1-10.1,17.7-14.2,30.2-12.9c7.1,0.7,12.2,4.3,15,10.8
		c2.9,6.8,2.8,13.7-2.2,19.2c-3.6,3.9-8.4,7-13.1,9.5c-6.2,3.2-12.9,5.3-19.2,8.2c-2.8,1.3-5.5,3.2-7.7,5.3
		c-3.4,3.4-2.7,5.5,1.7,7.3c7,2.9,14.3,5.5,21,9.1c10.5,5.6,18.3,13.7,20.8,26c2.9,13.9-3,24.3-15.4,26.8c-7.9,1.5-14.4-1.6-18.6-8
		c-3.8-5.8-6.1-12.5-9.1-18.7c-2.5-5.2-4.8-10.6-7.7-15.6c-1.1-1.8-3.9-3.5-6-3.6c-1.2,0-2.9,3.2-3.6,5.3
		c-3.9,11.2-8.4,22.1-17,30.7c-7.4,7.4-16.4,10.5-26.8,9.7c-9.2-0.8-14.9-5.8-17.1-14.8c-0.3-1.1-0.8-2.2-1.1-3.3
		C-590-996.7-590-997.3-590-998z M-517.5-1038.9c0-6.1-5.1-11.2-11-11.1c-5.8,0.1-10.6,5.1-10.7,10.9c-0.1,6.1,4.8,11.2,10.8,11.3
		C-522.3-1027.7-517.5-1032.7-517.5-1038.9z M-558.1-982.4c0.6,0.1,0.9,0.4,1.1,0.3c11-3.6,27.8-28,27.1-39.5
		c-0.1-0.9-1-2.3-1.8-2.5c-0.7-0.2-2.1,0.7-2.6,1.5c-0.6,1.1-0.7,2.5-1,3.8c-2.3,10.5-6.2,20.3-13.6,28.3
		C-551.6-987.5-555-985.1-558.1-982.4z M-498.2-1095.1c-0.3-0.3-0.5-0.6-0.8-0.9c-2,1-4.2,1.8-6,3.1c-12,9-17.4,21.9-21.1,35.8
		c-0.3,1,1,2.4,1.5,3.7c1-1.2,2.7-2.3,3-3.6C-518.3-1072.5-512.5-1086.4-498.2-1095.1z M-583.9-1069.1c-0.4,0.3-0.9,0.7-1.3,1
		c1.9,3,3.5,6.3,5.8,9c8.7,9.8,20.3,14.7,32.5,18.2c1.2,0.3,2.7-0.9,4.1-1.4c-1.2-1.1-2.2-2.8-3.6-3.1
		C-561.6-1048.9-575.3-1054.9-583.9-1069.1z M-472.3-1008.9c0.5-0.4,1.1-0.8,1.6-1.2c-3.1-3.9-5.7-8.3-9.3-11.7
		c-8-7.5-17.9-11.8-28.5-14.7c-1.5-0.4-3.4,0.6-5.1,1c1.3,1.2,2.4,3.1,3.9,3.4C-494.3-1029-481-1022.8-472.3-1008.9z"/>
	<path d="M-83.3-1066.4c0,3.4,0,6.5,0,9.6c10.5-3.8,20.6-7.4,31.7-11.4c0,12.6,0,23.4,0,34.5c-5,1.2-10.1,2.2-15.2,3.7
		c-2.8,0.8-5.4,2.5-8.2,3.6c-6.1,2.6-9,6.5-8.5,13.8c0.8,11.4,0.2,22.9,0.2,34.8c-11.5,0-22.6,0-34.3,0c0-6.1,0-11.9,0-18.9
		c-4.8,2.8-8.5,5.2-12.4,7.3c-11.2,6.1-21.9,13.4-34.9,15.5c-15.2,2.4-28.7-1.5-40.5-11.2c-2.6-2.1-4.8-2.6-7.6-1
		c-4.8,2.7-9.7,5.1-14.4,7.9c-9.1,5.6-18.8,6.6-28.8,3.4c-3.4-1.1-6.6-3.7-9.1-6.4c-2.8-3-5-3.7-8.4-1c-15.2,11.8-31.6,9.6-42.9-6
		c-3.6-5-6.3-10.5-9.4-15.9c-4.4-7.8-8.8-15.7-13.2-23.5c-2.1-3.8-5.6-4.6-9.5-3.6c-3.9,1-3.4,4.4-3.4,7.4c0,13.3,0,26.7,0,40
		c0,1.8,0,3.6,0,5.8c-10.7,0-20.9,0-31.5,0c0-29.6,0-58.9,0-88.6c10.3,0,20.4,0,30.9,0c0.3,1.3,0.7,2.8,1,4.1
		c4.7-1.7,9.1-3.6,13.7-4.8c7.6-1.9,13.9,0.3,19,6.7c8.7,10.7,14.8,22.8,20.7,35.2c2.6,5.4,5.8,10.4,9.1,15.4
		c1.7,2.7,4.9,4.5,7.7,2.6c1.9-1.3,3.5-4.4,3.6-6.8c0.4-8.4,0.2-16.9,0.2-26c-5.2,0-9.8,0.1-14.4-0.1c-1.3-0.1-3.3-0.6-3.8-1.5
		c-4.2-8.1-8.2-16.2-12.8-25.5c7.9,0,14.8,0,21.7,0c1.8,0,3.7-0.1,5.5,0c2.8,0.2,3.8-1,3.8-3.8c-0.2-5.4,0-10.9,0-16.5
		c11.7,0,22.7,0,34.2,0c0,6.6,0,13,0,20.2c5.6,0,10.6,0,15.9,0c0,9.4,0,18,0,27.1c-5,0-9.9,0-15.6,0c0,10.2-0.4,20,0.2,29.7
		c0.2,3.8,4,5.5,7.6,4.6c3.8-1,7.5-2.8,10.8-4.8c1-0.6,1.5-3.2,1.3-4.7c-4.3-27.5,12.1-52.3,39.1-58.7c24.1-5.7,49.3,7.5,58.7,31
		c-2.6,1.8-5.3,3.7-8.1,5.5c-13.3,8.8-26.7,17.6-40,26.5c-1.4,0.9-2.3,2.5-3.4,3.8c1.7,1.2,3.5,3.6,5,3.4c5.5-0.6,11.6-0.8,16.2-3.5
		c12.4-7.2,24.1-15.4,35.9-23.5c1.2-0.9,1.9-3.4,1.9-5.1c0.2-10,0.1-19.9,0.1-30.3C-106.2-1066.4-95.1-1066.4-83.3-1066.4z
		 M-173.2-1043.5c-4.6-4.3-8-1.5-11.2,0.5c-3.5,2.1-7.1,4.5-5.3,10.3c4.1-2.6,7.8-4.9,11.6-7.3
		C-176.7-1041.1-175.2-1042.1-173.2-1043.5z"/>
	<path d="M52-1066.5c10.5,0,20.4,0,30.9,0c0.2,1.9,0.4,3.6,0.4,5.4c0,26-0.1,52,0.1,78c0,4.2-1,6-5.5,5.8c-7-0.3-14-0.3-21,0
		c-3.4,0.1-5.4-0.8-5.3-5.1c-2.1,1.1-3.7,1.9-5.3,2.8c-9.9,5.5-20.1,5.4-30.4,1.6c-11.1-4.2-16.4-13.5-17.2-24.4
		c-1.4-21.2-1.5-42.5-2.2-64c11.9,0,22.7,0,34.1,0c0,1.8,0,3.6,0,5.4c0,14.2,0,28.3,0,42.5c0,7.4,4,11.9,10.4,11.9
		c6.3,0,10.7-4.6,10.8-11.7c0.1-14.2,0-28.3,0-42.5C52-1062.7,52-1064.5,52-1066.5z"/>
	<path d="M88.3-978.3c4.2-6.4,8.3-12.6,12.4-18.8c5-7.5,9.8-15.1,15-22.4c1.9-2.7,2-4.7,0.1-7.5c-8.6-12.8-16.9-25.9-25.9-39.8
		c4.9,0,8.9,0,12.9,0c1.3,0,2.7,0,4,0c6.2,0,13.2-1.8,18.2,0.5c4.9,2.3,7.8,8.8,12.2,14.2c2.4-3.7,5-7.4,7.4-11.2
		c1.5-2.5,3.3-3.6,6.4-3.6c10.6,0.2,21.2,0.1,32.6,0.1c-1.3,2.2-2.1,3.7-3.1,5.2c-7.4,11.5-14.7,23-22.3,34.3
		c-2.1,3.1-2.2,5.2,0,8.4c8.1,11.8,16,23.7,23.9,35.7c1,1.5,1.9,3.1,3.4,5.4c-2.4,0.2-4.1,0.4-5.8,0.4c-8.8,0-17.7-0.2-26.5,0.1
		c-4.1,0.2-6.4-1.3-8.4-4.7c-2.3-4-5-7.7-8-12.3c-3.2,5-6,9.5-9.1,13.7c-1,1.4-3,3-4.5,3c-11,0.2-22,0.1-33,0.1
		C89.7-977.6,89.2-977.9,88.3-978.3z"/>
	<path d="M-428.7-1092.9c11.7,0,22.8,0,34.3,0c0,38.4,0,76.5,0,115c-11.3,0-22.7,0-34.3,0C-428.7-1016.2-428.7-1054.3-428.7-1092.9z
		"/>
	<path d="M-44.6-1093.8c9.5,0,18.8,0,28.1,0c1.6,0,3.2,0.1,5.2,0.2c0,38.7,0,77,0,115.8c-11,0-21.9,0-33.3,0
		C-44.6-1016.4-44.6-1054.8-44.6-1093.8z"/>
	<path d="M209-981.5c0,5.4-4,9.4-9.5,9.3c-5.1-0.1-9.3-4.2-9.3-9.1c0-5.1,4.5-9.4,9.7-9.3C205.1-990.6,209-986.6,209-981.5z
		 M204.6-976.3c3.4-3.5,3.5-7.7,0.3-10.8c-3-2.9-7.4-2.9-10.3,0c-2.8,2.8-2.9,8-0.2,10.9C197.2-973,201.1-973,204.6-976.3
		L204.6-976.3z"/>
	<path d="M-442.1-983.1c0.1,5.4-3.5,8.9-9,9c-5.4,0-9.4-3.7-9.5-8.7c-0.1-5,4-9,9.3-9C-445.9-991.9-442.2-988.4-442.1-983.1z
		 M-451.4-990.8c-4,0.1-7.5,3.7-7.4,7.9c0,4.1,3.6,7.9,7.5,7.9c4.2,0.1,7.7-3.8,7.6-8.2C-443.9-987.5-447.3-990.9-451.4-990.8z"/>
	<path d="M-528.3-1045.7c3.7,0,7.1,3.5,6.9,7.1c-0.1,3.6-3.2,6.5-6.9,6.5c-4.2,0-6.8-2.7-6.7-6.9
		C-534.8-1042.9-532-1045.7-528.3-1045.7z M-522.5-1038.5c-2.6-2.1-4.1-4.3-5.6-4.3c-1.4,0-3.8,2.3-3.9,3.7c-0.1,1.3,2.1,3.8,3.5,4
		C-527-1034.8-525.2-1036.8-522.5-1038.5z"/>
	<path d="M204.7-976.3c-2-1.4-4-2.9-6.3-4.5c-0.3,1.3-0.7,2.6-1,3.9c-0.2,0-0.4,0-0.6,0c0-3,0-5.9,0-9.9c2.1,0.4,4.2,0.8,6.3,1.3
		c-0.3,1.5-1.1,3.1-0.9,4.5c0.3,1.6,1.6,3.1,2.4,4.7C204.6-976.3,204.7-976.3,204.7-976.3z"/>
	<path d="M-449.4-979.6c-0.6-0.7-1.5-1.8-2.9-3.3c-0.6,1.7-1.1,2.9-1.5,4c-0.2,0-0.4-0.1-0.6-0.1c0-2.7,0-5.4,0-9.4
		c2.6,0.9,5.6,1.2,6.7,2.7C-447-984.6-448.8-981.7-449.4-979.6z"/>
</g>
<g>
	<path d="M-498.3-809.9c-4.3,7.4-8.6,14.8-12.8,22.2c-13.4,23.3-26.7,46.7-40.1,70c-4.3,7.4-8.8,14.6-17.6,17.5
		c-2.7,0.9-5.5,1.6-8.3,1.6c-9.1,0.2-18.2,0.1-28.2,0.1c0.6-6.6,1.1-13.2,2-19.6c0.1-0.9,2.4-2,3.7-2c5.6-0.2,11.3-0.2,17-0.1
		c5,0.1,7.9-2.5,10.9-6.5c6.6-8.9,6.6-17.2,2-27.4c-8.7-19.3-15.8-39.4-23.6-59.2c-0.6-1.5-1.2-3.1-2.2-5.7c5.3,0,10,0,14.7,0
		c12.5,0,12.5,0,16.9,11.5c4.2,11.2,8.4,22.4,12.7,33.5c0.6,1.5,1.3,2.9,2.3,5.3c3.1-5.4,5.6-10,8.2-14.5
		c6.1-10.9,12.1-21.8,18.4-32.5c0.9-1.5,3.2-3.1,4.8-3.2c24.6,0,49.2,0,73.9,0.4c7.9,0.1,9.7,1.3,15.9,6.8
		c7.4-7.6,17.1-7.5,26.8-7.3c6.8,0.1,13.6,0.1,20.4,0.8c13.2,1.3,20.9,9.4,20.9,22.8c0,10.3-1.2,20.6-2.1,30.8
		c-0.9,10.1-2,20.2-3,30.7c-8.4,0-16.7,0-25.3,0c1.6-17.9,3.3-35.6,4.8-53.3c0.7-8.1-0.9-9.7-9-9.9c-4.5-0.1-9-0.2-13.5,0.1
		c-6.1,0.3-8.3,2.6-8.8,8.6c-1.7,18-3.4,36.1-5.2,54.5c-8.3,0-16.7,0-25.3,0c1.1-12.2,2.3-24.2,3.4-36.3c0.6-6.5,1.1-12.9,1.7-19.4
		c0.5-4.9-2-7.3-6.6-7.4c-7.1-0.2-14.3-0.3-21.5,0.1c-1.2,0.1-3,2.7-3.1,4.3c-1.9,19-3.6,38-5.3,57.1c0,0.5-0.3,0.9-0.5,1.7
		c-8.2,0-16.4,0-25.1,0c2.4-25.3,4.7-50.4,7-75.5C-497.5-809.6-497.9-809.8-498.3-809.9z"/>
	<path d="M-776.8-733.9c-8.9,0-17.3,0-26.4,0c0.9-10.4,1.7-20.4,2.7-30.4c2.2-23.6,4.6-47.3,6.6-70.9c0.3-3.9,1.3-5.4,5.5-5.4
		c23.9,0.2,47.9,0,71.9,0.1c3.8,0,7.7,0.4,11.4,1.3c9.4,2.2,16,9.5,16,19.1c0,9.9-0.6,19.9-2.3,29.7c-2.1,12.7-10.5,19.9-23.9,21.9
		c7.4,11.6,14.5,22.7,22.1,34.8c-9.9,0-18.9,0.1-28-0.1c-1.2,0-2.6-1.7-3.4-3c-5.6-9.4-11.2-18.9-16.6-28.4c-1.4-2.5-3-3.5-5.9-3.4
		c-7.3,0.2-14.6,0.3-21.9,0c-3.9-0.2-4.8,1.5-5,4.9C-774.9-753.8-775.9-743.9-776.8-733.9z M-771.2-792c16.5,0,32.4,0.1,48.3-0.1
		c3.6,0,5.7-2.4,6.2-6c0.5-3.9,1-7.9,1.1-11.9c0.2-5.1-1.9-7.4-7.1-7.4c-14.3-0.1-28.6-0.1-42.9,0c-1.2,0-3.2,1.1-3.3,1.9
		C-769.9-807.8-770.5-800.1-771.2-792z"/>
	<path d="M-602.7-733.6c-3,0-5.6,0-8.2,0c-16.3,0-32.6,0.1-48.9,0c-3.8,0-7.7-0.3-11.4-1.1c-8.7-1.9-14.8-7-16.1-16.1
		c-0.7-5-0.9-10.3-0.2-15.3c1.6-10.8,9.6-17.7,21.2-18.1c12.8-0.4,25.6-0.3,38.4-0.3c3,0,5.7,0.1,5.7-4.1c0-4,0.8-9-4.7-9.4
		c-8.8-0.6-17.6-0.1-26.4-0.1c-0.3,0-0.7,0.1-0.9,0.3c-8.1,7.5-18,2.5-27.8,4.6c0.2-2.2,0-3.7,0.4-5.1c3.3-11.4,10.9-18.7,22.6-19.5
		c13.7-1,27.6-1,41.3-0.1c13.4,0.9,21.1,11.4,20.2,26c-1.1,16.2-2.8,32.4-4.3,48.6C-602.1-740.5-602.4-737.5-602.7-733.6z
		 M-624-767.8c-11.7,0-22.6-0.1-33.5,0c-4.6,0.1-6.2,3.4-6.4,7.4c-0.1,4.1,2.2,6.1,6.2,6.1c9.8,0.1,19.6,0.2,29.3,0
		c1.1,0,2.9-1.2,3.1-2.1C-624.6-759.9-624.5-763.6-624-767.8z"/>
	<path d="M-349-793.6c0.4-12.9,10-23.5,23.3-24.4c13.5-1,27.3-1,40.8,0c12.8,0.9,20.6,10,20.1,22.8c-0.6,15.1-2.2,30.1-3.4,45.2
		c-0.4,5.3-1,10.6-1.5,16c-1,0.2-1.8,0.5-2.6,0.5c-19.3,0-38.6,0.3-57.9-0.2c-5.4-0.1-11.2-2-16-4.5c-5.8-3-7.8-8.9-8.6-15.4
		c-2.4-19.8,6.6-30.6,26.5-30.8c11.1-0.1,22.3,0.1,33.4-0.1c1.8,0,5.1-1.5,5.2-2.5c0.4-3.6,2.5-9.6-2.7-10.2
		c-9.8-1-19.8-0.2-29.7-0.1C-330.3-790.1-340.1-795.6-349-793.6z M-292.5-754.3c0.5-4.5,0.9-8.7,1.4-13.2c-1.4-0.2-2.4-0.3-3.3-0.3
		c-10,0-20-0.1-29.9,0.1c-4.5,0.1-6.3,3-6.4,7.2c-0.2,4.3,2,6.2,6,6.2C-314.2-754.2-303.6-754.3-292.5-754.3z"/>
	<path d="M44.9-767.7c-21.7,0-42.5,0-63.7,0c-0.3,2.2-0.7,4.1-0.8,6c-0.4,4.6,1.4,7.5,6.3,7.6c8.6,0.1,17.3,0,25.9,0
		c1,0,2.2,0,2.9-0.6c8.3-7.3,18.1-1.7,27-3.9c0.3,9.8-6.7,19.7-16.2,22.7c-4.8,1.5-10.1,2.3-15.2,2.4c-12.3,0.1-24.7,0.4-36.8-1
		c-11.7-1.4-18.4-9.8-17.9-21.5c0.7-13.7,1.8-27.5,4.1-41.1c2.1-12.1,11.8-20.2,24.2-20.9c13.8-0.7,27.6-0.7,41.4,0
		c11.8,0.6,19.5,7.8,20.2,19.5C46.7-788.5,45.4-778.2,44.9-767.7z M-16.6-784.7c12,0,24.1,0,36.2-0.1c0.7,0,1.6-0.6,2-1.2
		c3.4-5.3-0.3-12.4-6.7-12.6c-6.8-0.2-13.6-0.1-20.5-0.1C-15.5-798.6-18-795.5-16.6-784.7z"/>
	<path d="M-80.7-733.5c1.2-12.9,2.3-25.1,3.5-37.3c0.6-6.3,1.1-12.6,1.6-18.9c0.4-4.3-1.9-6.8-6-6.8c-9.1-0.2-18.2-0.1-27.8-0.1
		c-0.8,8-1.6,15.8-2.3,23.5c-1.1,11.9-2.1,23.8-3.3,35.7c-0.1,1.4-1.7,3.7-2.7,3.7c-7.4,0.3-14.9,0.2-23,0.2c2.7-28.8,5.3-57,8-85.6
		c8.2,0,15.9-0.1,23.5,0c12.8,0.2,25.6-0.1,38.4,0.8c13.5,1,21.3,9.6,20.8,23.2c-0.5,13.8-2.1,27.5-3.3,41.2
		c-0.5,5.6-0.9,11.3-1.7,16.9c-0.2,1.2-1.6,3.3-2.4,3.3C-65.1-733.3-72.7-733.5-80.7-733.5z"/>
	<path d="M-252.6-818.5c18.1,0,35.4-0.9,52.6,0.3c17.3,1.2,24.2,11.1,21.9,29c-8,0-16,0-24.1,0c-2.7-7.2-3.2-7.5-11.1-7.6
		c-1,0-2,0-3,0c-13.4,0-13.3,0-14.4,13.5c-1.2,15.4-2.7,30.8-4.2,46.1c-0.1,1.2-1.5,3.3-2.4,3.3c-7.6,0.3-15.2,0.2-23.3,0.2
		C-257.9-762.3-255.3-790.4-252.6-818.5z"/>
	<path d="M-168.4-818.7c8.5,0,16.5,0,25.2,0c-2.7,28.4-5.3,56.4-7.9,84.8c-8.5,0-16.7,0-25.2,0C-173.7-762.2-171-790.1-168.4-818.7z
		"/>
	<path d="M-165.7-848c12.6,0,24.7,0,36.8,0c-3.2,12.3-22.7,22.6-38.8,20.1C-167-834.5-166.4-841.2-165.7-848z"/>
</g>
<g>
	<path d="M-561-535.7c-2,11.1-4.1,22.1-6.1,33.2c-1.3,7.4-1.8,7.8-9.3,7.8c-4.2,0-8.3,0-12.5,0c-7,0-8-1.1-6.7-7.9
		c3-15.6,6.2-31.2,9.3-46.9c1.4-6.8,2.8-13.6,4.1-20.5c0.8-4.4,3.2-6.2,7.6-6.1c7,0.2,14,0.1,21,0c5.1-0.1,8.3,1.7,10,6.9
		c2.8,8.7,6.2,17.1,9.4,25.7c0.6,1.6,1.4,3.2,2.4,5.6c7.4-9.4,14.1-18.2,21.1-26.9c10.7-13.2,5.9-11.3,23.4-11.4c6-0.1,12,0,18,0
		c5.3,0,6.6,1.5,5.7,6.6c-3.9,20.5-7.9,41-12,61.5c-2.9,14.5-0.3,13.2-16.4,13.2c-2.7,0-5.3,0-8,0c-5.5-0.1-6.5-1.2-5.5-6.6
		c1.8-9.5,3.6-18.9,5.3-28.4c0.3-1.9,0.5-3.8-0.3-6.3c-1.2,1.4-2.5,2.9-3.6,4.4c-8.1,10.5-16,21.2-24.4,31.5c-2,2.4-5.4,4.3-8.4,5.1
		c-5.3,1.4-8.5-1.1-10.3-6.6c-3.4-10.4-7.4-20.6-11.2-30.9c-0.4-1.2-1-2.3-1.6-3.5C-560.3-535.7-560.7-535.7-561-535.7z"/>
	<path d="M-633.7-539.6c1-5.2,2-10.1,2.9-15.1c0.9-4.9,2-9.8,2.7-14.7c0.6-4.8,3.3-6.5,7.8-6.4c4.7,0.1,9.3,0,14,0
		c7.3,0,8.4,1.2,7,8.2c-2.3,12.1-4.8,24.1-7.2,36.1c-1.9,9.8-3.8,19.5-5.7,29.3c-1.2,6.3-2.5,7.5-9,7.4
		c-18.8-0.2-13.9,2.4-23.4-13.3c-4.5-7.5-8.9-15-14.2-23.9c-1.9,10.6-3.7,19.6-5.3,28.7c-1.4,7.7-2.2,8.5-9.9,8.5
		c-5.3,0-10.6-0.1-16,0c-4.1,0.1-5.3-2-4.6-5.7c4.3-23,8.7-45.9,13-68.9c0.9-4.6,3.2-6.8,8.2-6.7c19.8,0.4,15.3-2.1,25.3,14.1
		c4.3,7.1,8.6,14.2,12.9,21.3C-635-540.3-634.7-540.2-633.7-539.6z"/>
	<path d="M-280.3-534c6.2,2.9,7.7,8.6,6.2,15.8c-1.3,6.2-2.2,12.4-3.3,18.6c-0.6,3.5-2.6,5.2-6.1,5.2c-6.5,0-13-0.1-19.5,0
		c-3.8,0.1-5-1.7-4.4-5.3c1-5.7,1.9-11.5,2.8-17.2c0.8-4.7-0.3-6-5.1-6.2c-16.6-0.6-16.6-0.6-19.7,15.8
		c-2.3,12.6-2.3,12.6-15.1,12.8c-3.7,0.1-7.3,0.1-11,0c-5.5-0.2-6.5-1.4-5.4-6.8c3.1-15.6,6.2-31.3,9.2-46.9c1.4-7,2.9-14,4-21.1
		c0.7-5,3.5-6.7,8.1-6.7c7.7,0,15.3,0,23,0c11.5,0,23,0,34.5,0c11.9,0,16,4.6,14.5,16.3c-0.6,4.6-1.1,9.5-3.1,13.5
		C-272.9-541.7-276.9-538.1-280.3-534z M-323.1-539.8c3.7,0,6.8,0,9.9,0c13.9,0,13.9-0.1,15.8-13.7c0-0.2,0.1-0.3,0.1-0.5
		c0.5-3.3-0.8-5.2-4.2-5.2c-5-0.1-10-0.2-15,0.1c-1.2,0.1-3.2,1.4-3.4,2.5C-321.2-551.3-322-545.9-323.1-539.8z"/>
	<path d="M-738.3-575.9c6.3,0,12.6,0,19,0c4.5,0,7,1.6,7.6,6.5c2.7,22.4,5.7,44.8,8.6,67.2c0.8,6.1-0.4,7.5-6.5,7.6
		c-5.7,0-11.3,0-17,0c-3.9,0-5.6-1.9-6-5.7c-1.2-10.8-1.3-10.8-12.1-10.8c-5.7,0-11.3-0.3-17,0.2c-2,0.2-5.1,1.8-5.6,3.5
		c-3.4,10.7-10.3,14.6-21.2,12.9c-3.9-0.6-8,0-12-0.1c-4.7-0.2-5.9-2-3.7-5.9c13-23.7,26-47.5,39.4-71c1.2-2.1,4.6-3.9,7.1-4.1
		C-751.3-576.3-744.8-575.9-738.3-575.9z M-739.1-560.1c-0.5-0.1-0.9-0.2-1.4-0.3c-5.2,10.3-10.4,20.5-15.8,31.1
		c7.4,0,13.9,0,20.6,0C-736.9-539.9-738-550-739.1-560.1z"/>
	<path d="M-382.4-494.7c-2.2,0-4.3,0-6.5,0c-7.6,0-8.4-0.7-9-8.5c-0.7-8-0.7-8-8.6-8c-6.5,0-13,0.1-19.5,0c-3.2-0.1-5.6,0.6-6.6,3.9
		c-3.1,10.9-10.6,14.2-21.2,12.7c-3.4-0.5-7,0-10.5-0.1c-6.2-0.1-7.3-1.8-4.3-7.2c5.4-9.9,10.9-19.8,16.3-29.7
		c7.1-12.9,14.4-25.8,21.3-38.8c2.1-4,4.9-5.7,9.5-5.7c12.1,0.2,24.3,0,36.4,0.1c6.3,0,7.6,1.1,8.4,7.2c2.8,21.9,5.6,43.8,8.3,65.7
		c0.9,7.5,0,8.3-7.6,8.4C-378.1-494.6-380.3-494.7-382.4-494.7z M-421.4-529.2c7.2,0,13.7,0,20.7,0c-1.2-10.7-2.3-20.9-3.5-31.1
		c-0.4,0-0.9-0.1-1.3-0.1C-410.7-550.2-416-539.9-421.4-529.2z"/>
	<path d="M-1127.4-586.1c11.5,4.7,22.3,9.1,33.2,13.6c21.6,9,43.3,17.9,64.9,27c3.3,1.4,6.1,1.4,9.4-0.1
		c30.8-12.9,61.7-25.6,92.5-38.4c1.6-0.7,3.4-1.2,5.6-2c0,7.6,0.1,14.7-0.1,21.8c0,1-1.5,2.5-2.6,2.9
		c-32.3,13.5-64.7,26.9-97.2,40.1c-1.9,0.8-4.6,0.6-6.5-0.2c-31.5-12.9-62.9-26-94.4-38.9c-3.7-1.5-5-3.4-4.8-7.3
		C-1127.2-573.5-1127.4-579.4-1127.4-586.1z"/>
	<path d="M-777.5-575.9c-1.8,2.9-2.7,4.6-3.9,6c-10.9,13.2-21.6,26.6-33,39.4c-5.2,5.9-8.3,12.2-9.4,19.8c-0.6,3.9-1.5,7.8-2.3,11.7
		c-0.7,3.2-2.4,4.8-5.9,4.8c-6.7-0.1-13.3-0.1-20,0c-4.1,0.1-5.4-1.9-4.7-5.6c1.1-5.5,2.4-11,3.2-16.6c0.3-2.4,0.1-5.3-1-7.5
		c-7.7-15.3-15.7-30.3-23.6-45.5c-3-5.8-2.5-6.5,3.8-6.5c6.2,0,12.3,0.2,18.5-0.1c4.3-0.2,6.7,1.5,8.4,5.4
		c3.5,7.7,7.4,15.2,13.2,24.5c0.6-1.5,0.9-3.3,1.9-4.6c5.9-7.4,11.9-14.8,18-22c1.1-1.3,2.8-2.9,4.2-3
		C-799.7-576.1-789.4-575.9-777.5-575.9z"/>
	<path d="M-1030.6-484c-13.9-5.7-26.9-11.1-39.9-16.5c-17.6-7.3-35.2-14.6-52.9-21.8c-3.1-1.3-4.3-2.9-4.2-6.2
		c0.3-6.1,0.1-12.3,0.1-19.3c6.5,2.6,12.4,4.9,18.2,7.3c24.7,10.2,49.3,20.4,74.1,30.5c3.4,1.4,4.9,3,4.6,6.9
		C-1030.9-497.1-1030.6-490.9-1030.6-484z"/>
	<path d="M-1018.5-484.8c0-7-0.2-14,0.2-20.9c0.1-1.4,2-3.2,3.5-3.9c28.2-11.8,56.4-23.4,84.7-35.1c2.6-1.1,5.2-2,8.4-3.3
		c0,7.6,0.1,14.5-0.1,21.4c0,1.1-1.2,2.7-2.3,3.2c-30.8,12.9-61.6,25.7-92.4,38.5C-1017.1-484.6-1017.6-484.8-1018.5-484.8z"/>
</g>
<g>
	<path d="M320.1-357.9c5.5,3.6,11,7.2,16.4,10.9c7.4,5,13.3,11.4,17.9,19.1c3,5,2.3,9.2-0.7,13.8c-8.1,12.6-19.3,21.4-33.1,27
		c-21,8.5-42.8,13-65.5,13c-1.1,0-2.1-0.3-3.2-0.4c0-0.4-0.1-0.9-0.1-1.3c2.6-0.3,5.2-0.6,7.8-1c9.8-1.7,19.6-3.2,29.3-5.2
		c2.2-0.4,4-2.6,6-4c-1.7-1.6-3.1-3.9-5.1-4.7c-9.3-4.1-16.4-10.3-21.6-19.2c-2-3.4-4.1-8.2-9.1-7.4c-5.1,0.8-5.3,6.1-7.2,9.9
		c-2.9,5.9-6.1,11.7-9.5,17.3c-1,1.7-3.1,2.7-5.4,3.8c15.4-23.4,17-46.5,0.3-70.2c1.3,1,3,1.7,3.7,3c3.9,6.3,7.7,12.7,11.2,19.2
		c1.7,3.2,2.7,7.1,7.1,7.4c4.5,0.4,7.7-1.9,9.8-5.7c5.9-10.7,14.7-17.8,26.1-21.9c1.2-0.4,2.6-0.8,3.6-1.6c1.2-1,2.7-2.2,3-3.6
		c0.2-0.7-1.6-2.3-2.8-3c-3.7-1.9-7.6-3.5-11.4-5.3c-0.2,0.4-0.4,0.9-0.6,1.3c1,0.5,2.3,0.8,3,1.6c1.2,1.2,2.6,2.7,2.7,4.1
		c0.1,0.8-2.2,2.7-3.4,2.7c-8.5,0.3-16.9,0.3-25.4,0.1c-1.3,0-3.5-1.7-3.5-2.7c0-1.4,1.3-3.6,2.5-4.1c3.2-1.1,4.4-3.5,3.6-6.1
		c-0.4-1.4-2.8-2.6-4.5-3.1c-2.9-0.9-5.9-1.2-8.9-1.7c0.1-0.5,0.2-1,0.2-1.4c4.1,0.5,8.3,0.9,12.9,1.4c0-11,0-21.8,0-32.7
		c-6.2-0.9-8.7,1.1-8.9,7.1c-0.1,2.6-0.1,4.6-3.6,4.5c-3.6-0.1-3.3-2.3-3.3-4.7c0.1-4.6,0-9.3,0-14.2c17.5,0,34.5,0,52.3,0
		c0,5.1,0,10.2,0,15.3c0,2.4-1,4.2-3.5,3.4c-1.4-0.5-3.1-2.2-3.3-3.6c-1.2-7.1-2.4-8.3-9.6-7.9c0,11.7-0.1,23.5,0.1,35.3
		c0,0.9,1.2,2.3,2.2,2.7c10.5,4.3,21.2,8.5,31.8,12.8L320.1-357.9z M309.2-290.7c-2.2-21.1-1.4-41.4,9.5-60.1
		c-8.8-3.6-12.7-2.8-15.1,3.5c-5.7,15.3-9.2,30.9-7.4,47.4C297.1-291.8,300.2-289.5,309.2-290.7z M316.7-292.2c3-1,4.4-1.4,5.8-1.9
		c7.3-2.2,7.5-2.2,7.2-9.9c-0.3-10.9,0.4-21.7,4.3-31.9c1.5-3.9,0.5-6.3-2.2-8.9c-4.7-4.6-7.9-4.2-9.4,2.1
		c-2.7,11.3-5,22.7-6.6,34.1C315-303.5,316.3-298.2,316.7-292.2z M297-349.2c-11.2,3-19.9,15-20.4,27.4
		c-0.5,11.5,4.7,22.1,12.5,24.7C286.6-315.1,289.1-332.2,297-349.2z M341.1-323.1c1.1,0.2,2.1,0.4,3.2,0.6c-3.7-5.4,0.3-4.6,2.2-6.2
		c-1.6-1.2-3.3-2.4-4.7-2.2c-1.2,0.2-2.8,2.2-2.8,3.4C338.9-326.1,340.3-324.6,341.1-323.1z"/>
	<path d="M156.6-364.3c1.2,5.9,0.9,6.3-4.5,6.3c-8.9,0.1-17.8,0-26.8,0c-0.5-3.7-1.6-6.6,3.2-7.4c1.3-0.2,2.9-3.2,3-5
		c0.3-11.1,0.2-22.3,0.1-33.5c0-4-2.4-5.5-6.3-5.5c0-2.2,0-4.1,0-6.7c7.9,0,15.6-0.3,23.3,0.1c7.4,0.3,14.9,0.8,22.2,2.1
		c6.4,1.1,10.7,5.4,11.7,12.1c1,7.2-1.1,13.8-7.6,17.1c-5.4,2.8-11.8,3.6-17.8,5.2c-2.4,0.6-6.2-1.4-6.3,3.4
		c-0.3,8.2-0.5,10.9,5.1,11.3C156-364.8,156.3-364.5,156.6-364.3z M150.5-397.4C150.6-397.4,150.6-397.4,150.5-397.4
		c0.1,2.5,0.2,5,0,7.4c-0.3,3.8,1.6,4.6,4.8,4c4.9-1,8.4-5.9,8.3-11.5c-0.1-5.6-3.3-9.8-8.2-11c-3.7-0.9-5.3,0.2-5,4.1
		C150.7-402,150.5-399.7,150.5-397.4z"/>
	<path d="M188.8-415.8c17.1,0,34,0,51.6,0c0,5.3,0.2,10.6-0.1,15.9c-0.1,1-1.9,2.5-3.1,2.6c-1.2,0.1-3.2-1.1-3.5-2.1
		c-3.1-9.7-3-9.7-13.1-9.7c-2,0-4,0-6.3,0c0,5.8,0,11.2,0,17c4.3,0.2,8.8,2,10.2-4.5c0.2-0.8,2.3-1.6,3.5-1.6c0.8,0,2.3,1.5,2.3,2.4
		c0.2,5.5,0.1,10.9,0.1,16.3c-3.5,1.1-5.5,1.2-6.7-2.5c-1.5-4.6-5.6-2.8-9.3-2.9c0,6.4,0,12.6,0,19.3c4.5,0,8.8,0.3,13.1-0.1
		c4.8-0.5,5.9-4.3,6.1-8.4c0.1-2.2-0.3-4.4,3.1-4.5c3.5-0.1,3.7,2.1,3.7,4.6c0,5.1,0,10.3,0,16c-6,0-11.6,0-17.2,0
		c-10.1,0-20.3,0.1-30.4-0.1c-1.4,0-3.6-1.4-4.1-2.7c-0.8-2.1-0.1-3.9,3-4.4c1.3-0.2,3.1-2.7,3.1-4.2c0.3-11.7,0.3-23.3,0.1-35
		c0-1.5-1.5-4-2.6-4.1C186.9-409.2,188.4-412.5,188.8-415.8z"/>
	<path d="M420.3-408.6c-7-0.3-9.1,1.4-9.4,7.6c-0.1,2.5-0.4,4.1-3.5,4.1c-3,0-3.5-1.5-3.5-4.1c0.1-4.8,0-9.6,0-14.8
		c17.6,0,34.7,0,52.5,0c0,5.1,0.2,10-0.2,15c-0.1,1.3-1.8,3.3-3.2,3.7c-2.9,0.9-3.5-1.2-3.7-3.8c-0.5-6.7-2.6-8.4-9.6-7.6
		c0,12.9-0.1,25.8,0.2,38.8c0,1.5,2.4,3,3.6,4.5c1.1,1.5,2,3.1,3,4.6c-1.3,0.8-2.7,2.4-4,2.4c-8.3,0.2-16.6,0.2-24.9,0
		c-1.3,0-3.2-1.4-3.7-2.6c-0.7-2.1-0.4-4.1,2.8-4.5c1.3-0.2,3.2-2.3,3.2-3.6C420.4-382.1,420.3-395.4,420.3-408.6z"/>
	<path d="M320.3-357.8c-0.5-3.3-2.2-7.1,3.5-7.7c0.9-0.1,2.4-2.1,2.4-3.3c0.2-13.3,0.1-26.6,0.1-41.4c-3.5,1.7-6.8,2.3-8.2,4.3
		c-1.5,2.2-1.3,5.6-1.9,8.4c-6.1,0.9-6.2,0.8-6.2-4.8c0-4.4,0-8.9,0-13.6c17.6,0,34.6,0,51.9,0c0,6.2,0,12.3,0,18.3
		c-4.2,1.1-6.8,1-6.7-4.2c0.1-5.6-2.4-7.3-9.3-6.9c0,6.4,0,12.9,0,19.3c0,5.8-0.1,11.7-0.1,17.5c0,3.3,0.2,6.3,4.6,7
		c0.9,0.1,2,2.8,1.9,4.2c-0.1,0.9-2.1,2.4-3.3,2.4c-9.6,0.2-19.2,0.2-28.9,0.2C320.1-357.9,320.3-357.8,320.3-357.8z"/>
	<path d="M367.6-364.6c5.7,0,6.3-3.8,6.2-8.4c-0.2-9.3-0.3-18.6-0.2-28c0.1-4.6-0.1-8.5-6.3-8.4c0-2.2,0-3.9,0-6.2
		c1.3-0.2,2.5-0.4,3.8-0.5c8.5-0.1,16.9-0.2,25.4,0c1.2,0,3.4,1.8,3.4,2.8c0,1.4-1.5,2.9-2.5,4.2c-1.2,1.7-3.7,3.3-3.7,4.9
		c-0.3,11.3-0.3,22.6,0,33.9c0,1.7,2.5,3.3,3.7,5c1,1.5,1.9,3.2,2.8,4.8c-1.4,0.8-2.7,2.1-4.1,2.2c-7.8,0.2-15.6,0.1-23.4,0.2
		C366.6-357.9,366.4-358.2,367.6-364.6z"/>
</g>
<g>
	<path d="M1177.1-892.6c0,40.2,0,80.4,0,121c-10.4,0-20.4,0-30.7,0c0-59.4,0-118.8,0-178.5c1.7-0.1,3.4-0.3,5-0.3
		c13.8,0,27.6,0.2,41.5-0.1c4.3-0.1,5.6,1.5,6.5,5.3c5.1,21.9,10.4,43.7,15.7,65.5c0.4,1.6,0.8,3.2,2.2,5
		c6.3-25.1,12.7-50.2,19-75.4c17.3,0,34.4,0,51.8,0c0,59.6,0,118.9,0,178.6c-10,0-19.9,0-30.5,0c0-40.4,0-80.7,0-121
		c-0.4-0.1-0.8-0.1-1.2-0.2c-2.1,7.9-4.3,15.8-6.4,23.8c-6.6,25.1-13.2,50.2-19.6,75.3c-0.9,3.7-2.5,4.8-6.1,4.6
		c-5.3-0.3-10.7-0.3-16,0c-3.3,0.2-4.6-1.1-5.3-4.2c-7.9-31.6-15.9-63.2-23.9-94.8c-0.4-1.5-0.8-3.1-1.2-4.6
		C1177.7-892.7,1177.4-892.6,1177.1-892.6z"/>
	<path d="M1537.3-771.4c-10.3,0-20.2,0-30.8,0c0-26,0-51.7,0-77.6c-15.3,0-29.9,0-45.1,0c0,25.9,0,51.6,0,77.6
		c-10.6,0-20.5,0-30.7,0c0-59.5,0-118.9,0-178.6c10.1,0,20,0,30.6,0c0,23.2,0,46.4,0,69.9c15.3,0,29.9,0,45.2,0
		c0-23.3,0-46.5,0-69.9c10.6,0,20.6,0,30.9,0C1537.3-890.6,1537.3-831.3,1537.3-771.4z"/>
	<path d="M1052.3-810.7c-2.1,12.4-4,24.1-6.1,35.7c-0.3,1.4-1.8,3.6-2.7,3.7c-8.9,0.3-17.9,0.2-27.3,0.2
		c9.4-60,18.7-119.4,28.1-178.9c17,0,33.6,0,50.7,0c11.4,59.4,22.9,118.7,34.4,178.5c-10.4,0-20.4,0-30.9,0
		c-2.4-11.4-4.9-22.9-7-34.4c-0.7-3.6-2.1-4.9-5.8-4.8C1074.5-810.6,1063.6-810.7,1052.3-810.7z M1069.4-919.2c-0.4,0-0.8,0-1.1,0
		c-3.8,26.1-7.6,52.1-11.4,78.4c9.6,0,18.4,0,27.9,0C1079.5-867.2,1074.4-893.2,1069.4-919.2z"/>
	<path d="M1665.8-771.4c-10.5,0-20.4,0-30.8,0c-2.4-11.5-4.9-23-7.1-34.6c-0.7-3.6-2-4.9-5.8-4.8c-9.8,0.3-19.6,0.2-29.5,0
		c-3.2-0.1-4.4,1-4.8,4.1c-1.5,10.5-3.4,21-4.9,31.5c-0.4,3.2-1.7,4.1-4.8,4c-8.3-0.2-16.6-0.1-25.5-0.1c9.4-60,18.7-119.4,28-178.9
		c16.9,0,33.5,0,50.7,0C1642.8-890.8,1654.3-831.5,1665.8-771.4z M1605.9-919.4c-0.4,0-0.7,0-1.1,0.1c-3.8,26.1-7.6,52.1-11.5,78.4
		c9.6,0,18.5,0,27.9,0C1616-867.4,1610.9-893.4,1605.9-919.4z"/>
	<path d="M1415.2-771.4c-10.7,0-20.7,0-31.2,0c-2.3-11.6-4.8-23.1-6.8-34.7c-0.7-3.8-2.2-4.8-5.9-4.7c-9.5,0.2-19,0.3-28.5,0
		c-4.2-0.2-5.3,1.5-5.9,5.3c-1.4,10-3.4,20-4.9,30c-0.5,3.2-1.5,4.5-5,4.4c-8.1-0.2-16.3-0.1-25.2-0.1
		c9.4-59.9,18.7-119.3,28.1-179.2c7.1,0,13.8,0,20.6,0c8.3,0,16.7,0.2,25-0.1c3.6-0.1,5.1,0.8,5.8,4.7c8.3,44,16.9,87.9,25.4,131.8
		C1409.6-800,1412.3-786,1415.2-771.4z M1370.5-840.8c-5.2-26.6-10.3-52.5-15.4-78.4c-0.3,0-0.6,0-0.9,0.1c-3.9,26-7.8,52-11.7,78.4
		C1352.1-840.8,1360.9-840.8,1370.5-840.8z"/>
	<path d="M976.2-771.4c-11.7,0-22.6,0-34.2,0c0-2.2,0-4.1,0-6.1c0-18.5,0.1-36.9-0.1-55.4c0-3.7-0.6-7.6-1.8-11.2
		c-11-33.3-22.1-66.6-33.2-99.8c-0.6-1.9-1.1-3.8-1.8-6.4c11.1,0,21.7-0.1,32.3,0.2c1.1,0,2.6,2.2,3,3.7
		c6.7,21.8,13.2,43.6,19.8,65.4c0.3,1.1,0.8,2.2,1.6,4.4c3.5-8.9,6.6-16.8,9.7-24.7c5.9-15,11.9-30,17.6-45c1.1-3,2.6-4,5.8-3.9
		c8.3,0.2,16.6,0.1,25.6,0.1c-3.9,10-7.6,19.4-11.4,28.7c-10.6,26.6-21.2,53.1-31.7,79.7c-0.8,2.1-1.1,4.5-1.1,6.8
		c-0.1,19.3-0.1,38.6-0.1,57.9C976.2-775.5,976.2-773.7,976.2-771.4z"/>
	<path d="M759.8-969.8c62.8,0.3,112,50,111.6,112.8c-0.4,61.1-50.5,110.5-112.2,110.4C698-746.8,648.1-797,648.4-858.3
		C648.6-920.3,698.4-970.1,759.8-969.8z M867.2-858.4c-0.2-59.2-48.4-107.1-107.7-106.9c-59,0.2-106.9,48.3-106.9,107.3
		c0.1,59.2,48.3,107,107.7,106.8C819.3-751.4,867.3-799.5,867.2-858.4z"/>
	<path d="M1660.7-950c7.7,0.1,13.9,6.5,13.7,14.2c-0.2,7.8-6.4,13.9-14.2,13.8c-7.8-0.1-13.6-6.2-13.6-14.2
		C1646.8-944,1653-950.1,1660.7-950z M1660.4-923.9c6.8,0,11.9-5.1,12.1-12c0.1-6.7-5.1-12.2-11.7-12.3c-6.9-0.1-12.5,5.4-12.4,12.2
		C1648.4-929.3,1653.8-924,1660.4-923.9z"/>
	<path d="M853.8-858.2c0.1,51.6-42.1,93.9-93.6,93.9c-52,0-94.4-42.1-94.4-93.7c0-51.9,42.2-94.2,93.9-94.1
		C811.7-952.1,853.7-910.2,853.8-858.2z M772.4-835.9c3.3,1.8,5.4,3.6,7.9,4.3c4.7,1.3,9.6,2.9,14.4,2.8c6.6-0.1,10.8,1.6,14.1,7.7
		c0.5,0.9,1.5,1.7,2.5,1.9c5.5,1.2,11.1,2.4,16.6,3.3c1.1,0.2,3-0.3,3.4-1.1c0.4-0.8-0.2-2.6-1-3.5c-3.5-4.2-7.1-8.4-10.8-12.4
		c-0.8-0.9-2.5-1.3-3.8-1.3c-6.3,0-9.9-2.8-13.1-8.1c-2.6-4.4-6.5-8.1-10.2-11.8c-1.6-1.6-4-2.5-6.6-4c13.4-7.7,26-15.1,39.1-22.6
		c-1.3-2-2.4-3.7-3.7-5.6c-13.5,7.8-26.4,15.2-39.3,22.9c-3.9,2.4-7,0.1-8.5-2.3c-1.6-2.5-1.9-6.2,2.2-8.4
		c6.5-3.4,12.8-7.2,19.1-10.9c6.8-4,13.6-8.1,20.7-12.3c-1.3-2.1-2.3-3.8-3.4-5.5c-13.2,7.5-25.9,14.8-39,22.3
		c-0.9-14-1.1-13.9-6.6-25.8c-1.4-3-1.8-8-0.2-10.4c2.8-4.2,1.5-7.3,0.2-11c-0.9-2.7-1.8-5.4-2.8-8c-0.8-2-1.9-3.9-3.4-7.2
		c-1.5,2.7-2.4,4-3,5.5c-1.6,4.4-3.3,8.7-4.5,13.2c-0.5,1.7,0,4,0.8,5.7c2.3,4.7,2.9,9.6-0.5,13.7c-4.5,5.4-5.7,11.5-5.6,18.1
		c0,1.9,0,3.7,0,6.4c-13.7-7.8-26.3-15.1-39.2-22.4c-1.2,2.1-2.1,3.8-3.2,5.7c13.3,7.7,26.1,15.1,38.8,22.6c1.5,0.9,3.3,2.8,3.3,4.2
		c0,2.1-1.1,4.6-2.5,6.2c-2,2.3-4.5,1.7-7.1,0.1c-12.7-7.5-25.5-14.9-38.6-22.5c-1.3,2.1-2.3,3.8-3.5,5.7
		c13.1,7.6,25.8,14.9,39.1,22.7c-8.7,4.2-15.1,9.4-18.6,18.1c-1.6,4.1-6.3,5.6-11,5.6c-1.3,0-3.2,0.1-4,0.9
		c-3.9,4.1-7.6,8.4-11.2,12.8c-0.7,0.9-0.8,2.4-1.1,3.6c1.2,0.3,2.4,1.1,3.5,1c5.6-0.9,11.1-2.1,16.6-3.3c1-0.2,2.2-1.3,2.7-2.3
		c2.5-5,7.6-8.3,12.9-7.3c6,1.2,11.2-0.5,16.3-3.2c2-1.1,4-2.1,6.8-3.6c0,15.2,0,29.6,0,44.1c2.3,0,4.1,0,6.4,0c0-2.1,0-3.8,0-5.6
		c0-12.6,0-25.3,0-37.9c0-3.9,2.9-7.5,6.1-7.6c3.1-0.1,6.2,3.6,6.2,7.4c0,12.8,0,25.6,0,38.4c0,1.8,0.2,3.5,0.2,5.3c2.3,0,4,0,6.1,0
		C772.4-806.1,772.4-820.4,772.4-835.9z"/>
	<path d="M1665.9-928.5c-2.2-2.9-2.2-7.5-7.8-5.4c-0.3,1.5-0.7,3.4-1.1,5.3c-0.5,0-0.9,0-1.4-0.1c0-4.8,0-9.7,0-15.1
		c2.1,0,4.7-0.3,7.2,0.1c1.4,0.2,3.7,2.2,3.5,2.7C1665.2-936.8,1665.7-932.8,1665.9-928.5z M1657.8-935.6c2.4-0.9,4.3-1.4,5.8-2.3
		c0.4-0.3,0.2-2.8-0.3-3c-1.6-0.7-3.5-0.9-5.5-1.3C1657.8-939.9,1657.8-938.5,1657.8-935.6z"/>
	<path d="M766-882.2c0.5,3.5,0.3,6.9-4.2,8.5c-3.1,1.1-7.9-1.4-8.1-4.8c-0.2-3-0.2-6,0.1-9c0.3-3.5,1.7-6,5.8-6.1
		c4.2-0.1,6.1,2.2,6.4,6C766.1-885.8,766-884.2,766-882.2z"/>
	<path d="M772.6-845.5c0-6.4,4.8-9.3,9.1-7c2.2,1.2,4.3,2.6,6.4,3.9c3.2,2,4.2,4.5,2.2,7.9c-1.9,3.3-4.5,4.3-7.9,2.6
		c-2.7-1.3-5.4-2.7-7.7-4.4C773.4-843.3,772.8-845.1,772.6-845.5z"/>
	<path d="M748.6-847c-1.7,2.2-2.5,3.9-3.9,4.9c-2.1,1.6-4.5,2.7-6.9,4c-3.4,1.8-6.1,0.8-7.9-2.5c-1.9-3.4-1.1-6,2.1-8
		c2-1.2,4-2.3,5.9-3.7c2.2-1.6,4.3-1.8,6.2,0.1C745.6-850.8,746.8-849.1,748.6-847z"/>
	<path d="M753.7-857.8c0-3.1,3.7-7.2,6.4-6.5c3.1,0.8,6.1,2,6.1,6.5c0,4.5-3.1,5.7-6.1,6.5C757.5-850.6,753.7-854.8,753.7-857.8z"/>
</g>
<g>
	<path d="M0.1,184.7c2.4-10.6,9.9-15.8,19.5-19.1c4.4-1.5,8.7-3.3,12.9-5.3c2.3-1,4.6-2.3,6.5-3.9c1.5-1.3,3.3-3.4,3.2-5
		c-0.1-1.3-2.8-2.6-4.5-3.4c-7.6-3.8-15.7-6.8-22.8-11.4C5.1,130.3,0.4,120.8,1.1,109c0.4-7.1,3.6-12.3,10.2-15.1
		C18,91,24.5,92,29.6,97.1c3,3,5.2,6.9,7.1,10.8c2.5,5.1,4.3,10.5,6.4,15.8c0.6,1.5,1.1,3.3,2.2,4.4c2.2,2.3,4.7,4.2,7.1,6.3
		c1.3-2.4,2.7-4.7,4-7.1c4-7.7,7.3-15.9,12.2-22.9c6.4-9.1,16-12.8,27.2-11.6c6.4,0.7,11,3.8,13.5,9.7c2.6,6.1,2.5,12.4-2,17.3
		c-3.2,3.5-7.5,6.3-11.8,8.6c-5.6,2.9-11.6,4.8-17.3,7.4c-2.5,1.2-5,2.9-6.9,4.8c-3.1,3-2.4,4.9,1.5,6.6c6.3,2.6,12.9,4.9,18.9,8.2
		c9.4,5.1,16.5,12.4,18.7,23.4c2.6,12.5-2.7,21.9-13.9,24.1c-7.1,1.4-13-1.4-16.7-7.2c-3.4-5.2-5.5-11.2-8.2-16.9
		c-2.3-4.7-4.3-9.6-7-14c-1-1.7-3.5-3.2-5.4-3.2c-1.1,0-2.6,2.9-3.3,4.8c-3.5,10.1-7.6,19.9-15.3,27.7c-6.7,6.7-14.8,9.5-24.1,8.7
		c-8.3-0.7-13.4-5.2-15.4-13.3c-0.2-1-0.7-2-1-2.9C0.1,185.9,0.1,185.3,0.1,184.7z M65.4,147.8c0-5.5-4.6-10.1-9.9-10
		c-5.2,0.1-9.6,4.6-9.7,9.8c-0.1,5.5,4.3,10.1,9.8,10.1C61,157.9,65.4,153.4,65.4,147.8z M28.8,198.7c0.5,0.1,0.8,0.3,1,0.3
		c9.9-3.2,25-25.2,24.4-35.6c0-0.8-0.9-2.1-1.6-2.2c-0.7-0.2-1.9,0.7-2.3,1.4c-0.6,1-0.6,2.3-0.9,3.4c-2.1,9.5-5.6,18.3-12.3,25.5
		C34.6,194.1,31.6,196.3,28.8,198.7z M82.8,97.1c-0.2-0.3-0.5-0.6-0.7-0.9c-1.8,0.9-3.8,1.6-5.4,2.8c-10.8,8.1-15.7,19.8-19,32.3
		c-0.2,0.9,0.9,2.2,1.3,3.3c0.9-1.1,2.4-2,2.7-3.3C64.7,117.5,69.9,105,82.8,97.1z M5.6,120.6c-0.4,0.3-0.8,0.6-1.2,0.9
		c1.7,2.7,3.1,5.7,5.2,8.1c7.8,8.8,18.3,13.3,29.3,16.4c1,0.3,2.5-0.8,3.7-1.2c-1.1-1-2-2.5-3.2-2.8
		C25.7,138.8,13.3,133.4,5.6,120.6z M106.1,174.8c0.5-0.4,1-0.7,1.5-1.1c-2.8-3.5-5.1-7.5-8.4-10.5C92,156.4,83,152.5,73.6,150
		c-1.4-0.4-3.1,0.6-4.6,0.9c1.2,1.1,2.2,2.8,3.5,3.1C86.3,156.7,98.3,162.3,106.1,174.8z"/>
	<path d="M456.7,123c0,3,0,5.8,0,8.7c9.5-3.4,18.6-6.7,28.6-10.3c0,11.3,0,21.1,0,31.1c-4.5,1.1-9.1,2-13.7,3.3
		c-2.6,0.8-4.9,2.2-7.4,3.3c-5.5,2.3-8.1,5.8-7.7,12.4c0.7,10.3,0.2,20.7,0.2,31.3c-10.4,0-20.3,0-30.9,0c0-5.5,0-10.8,0-17.1
		c-4.3,2.5-7.7,4.7-11.2,6.6c-10.1,5.5-19.7,12.1-31.5,14c-13.7,2.2-25.9-1.3-36.5-10.1c-2.4-1.9-4.3-2.3-6.8-0.9
		c-4.3,2.4-8.8,4.6-13,7.1c-8.2,5-17,6-25.9,3.1c-3-1-5.9-3.3-8.2-5.7c-2.6-2.7-4.5-3.3-7.6-0.9c-13.7,10.7-28.4,8.7-38.6-5.4
		c-3.2-4.5-5.7-9.5-8.4-14.3c-4-7-7.9-14.1-11.9-21.2c-1.9-3.4-5-4.1-8.5-3.2c-3.5,0.9-3.1,4-3.1,6.7c0,12,0,24,0,36
		c0,1.6,0,3.3,0,5.3c-9.6,0-18.8,0-28.4,0c0-26.6,0-53.1,0-79.9c9.2,0,18.3,0,27.9,0c0.3,1.2,0.6,2.5,0.9,3.7
		c4.3-1.5,8.2-3.3,12.4-4.3c6.9-1.8,12.5,0.3,17.1,6c7.8,9.7,13.4,20.6,18.7,31.7c2.3,4.8,5.3,9.4,8.2,13.9c1.6,2.4,4.4,4.1,6.9,2.3
		c1.7-1.2,3.1-4,3.2-6.1c0.4-7.6,0.1-15.2,0.1-23.4c-4.7,0-8.8,0.1-13-0.1c-1.2,0-2.9-0.5-3.4-1.4c-3.8-7.3-7.4-14.6-11.5-23
		c7.1,0,13.4,0,19.6,0c1.7,0,3.3-0.1,5,0c2.5,0.1,3.5-0.9,3.4-3.4c-0.1-4.9,0-9.8,0-14.9c10.6,0,20.4,0,30.8,0c0,5.9,0,11.7,0,18.2
		c5,0,9.5,0,14.3,0c0,8.5,0,16.2,0,24.4c-4.5,0-9,0-14,0c0,9.2-0.3,18,0.2,26.8c0.2,3.4,3.6,5,6.9,4.1c3.4-0.9,6.7-2.5,9.8-4.3
		c0.9-0.5,1.4-2.8,1.1-4.2c-3.9-24.8,10.9-47.1,35.2-52.9c21.7-5.2,44.5,6.7,52.9,28c-2.4,1.6-4.8,3.3-7.3,4.9
		c-12,8-24.1,15.9-36,23.9c-1.2,0.8-2,2.3-3,3.4c1.5,1.1,3.1,3.2,4.5,3c4.9-0.6,10.5-0.8,14.6-3.1c11.1-6.5,21.7-13.9,32.4-21.2
		c1.1-0.8,1.7-3,1.7-4.6c0.2-9,0.1-18,0.1-27.3C436,123,446,123,456.7,123z M375.7,143.6c-4.1-3.9-7.2-1.3-10.1,0.4
		c-3.1,1.9-6.4,4-4.8,9.2c3.7-2.3,7.1-4.4,10.4-6.6C372.6,145.9,373.9,144.9,375.7,143.6z"/>
	<path d="M578.7,122.9c9.5,0,18.4,0,27.8,0c0.1,1.7,0.4,3.2,0.4,4.8c0,23.4-0.1,46.8,0.1,70.3c0,3.8-0.9,5.4-5,5.2
		c-6.3-0.3-12.6-0.2-18.9,0c-3.1,0.1-4.8-0.7-4.7-4.6c-1.9,1-3.3,1.7-4.7,2.5c-8.9,5-18.1,4.9-27.4,1.4c-10-3.7-14.8-12.1-15.5-22
		c-1.3-19.1-1.4-38.3-2-57.7c10.7,0,20.4,0,30.7,0c0,1.7,0,3.2,0,4.8c0,12.8,0,25.5,0,38.3c0,6.7,3.6,10.7,9.4,10.8
		c5.7,0,9.7-4.1,9.7-10.5c0.1-12.8,0-25.5,0-38.3C578.7,126.4,578.7,124.8,578.7,122.9z"/>
	<path d="M611.3,202.4c3.8-5.7,7.5-11.3,11.2-16.9c4.5-6.7,8.8-13.6,13.5-20.2c1.7-2.5,1.8-4.2,0.1-6.8
		c-7.7-11.6-15.2-23.3-23.4-35.9c4.4,0,8,0,11.7,0c1.2,0,2.4,0,3.6,0c5.6,0,11.9-1.6,16.4,0.5c4.4,2,7,7.9,11,12.8
		c2.2-3.3,4.5-6.6,6.6-10.1c1.4-2.3,3-3.3,5.8-3.2c9.6,0.2,19.1,0.1,29.3,0.1c-1.2,1.9-1.9,3.3-2.8,4.7
		c-6.7,10.3-13.3,20.7-20.1,30.9c-1.9,2.8-2,4.7,0,7.5c7.3,10.6,14.4,21.4,21.5,32.1c0.9,1.4,1.7,2.8,3.1,4.9
		c-2.1,0.1-3.7,0.3-5.2,0.3c-8,0-15.9-0.2-23.9,0.1c-3.7,0.1-5.8-1.2-7.5-4.3c-2.1-3.6-4.5-7-7.2-11c-2.9,4.5-5.4,8.5-8.2,12.3
		c-0.9,1.3-2.7,2.7-4.1,2.7c-9.9,0.2-19.8,0.1-29.7,0.1C612.6,203.1,612.2,202.8,611.3,202.4z"/>
	<path d="M145.5,99.2c10.5,0,20.6,0,30.9,0c0,34.6,0,68.9,0,103.6c-10.2,0-20.5,0-30.9,0C145.5,168.3,145.5,134,145.5,99.2z"/>
	<path d="M491.5,98.4c8.6,0,17,0,25.3,0c1.5,0,2.9,0.1,4.6,0.2c0,34.8,0,69.4,0,104.3c-9.9,0-19.8,0-30,0
		C491.5,168.1,491.5,133.5,491.5,98.4z"/>
	<path d="M720.1,199.6c0,4.9-3.6,8.4-8.5,8.3c-4.6-0.1-8.3-3.8-8.4-8.2c0-4.6,4.1-8.5,8.7-8.4C716.6,191.4,720.1,194.9,720.1,199.6z
		 M716.1,204.3c3-3.2,3.1-6.9,0.3-9.7c-2.7-2.6-6.7-2.6-9.3,0c-2.5,2.5-2.6,7.2-0.2,9.8C709.5,207.2,713,207.2,716.1,204.3
		L716.1,204.3z"/>
	<path d="M133.3,198.1c0,4.9-3.1,8.1-8.2,8.1c-4.9,0-8.5-3.3-8.6-7.9c-0.1-4.5,3.6-8.1,8.3-8.1C129.9,190.2,133.3,193.3,133.3,198.1
		z M124.9,191.2c-3.6,0.1-6.7,3.4-6.7,7.1c0,3.7,3.2,7.1,6.8,7.1c3.8,0,7-3.4,6.9-7.4C131.7,194.2,128.6,191.1,124.9,191.2z"/>
	<path d="M55.6,141.7c3.3,0,6.4,3.1,6.2,6.4c-0.1,3.2-2.9,5.8-6.2,5.8c-3.8,0-6.1-2.4-6-6.2C49.8,144.3,52.3,141.7,55.6,141.7z
		 M60.9,148.2c-2.3-1.9-3.7-3.9-5-3.8c-1.3,0-3.4,2-3.6,3.3c-0.1,1.2,1.9,3.4,3.2,3.6C56.8,151.5,58.4,149.8,60.9,148.2z"/>
	<path d="M716.2,204.3c-1.8-1.3-3.6-2.6-5.7-4.1c-0.3,1.2-0.6,2.3-0.9,3.5c-0.2,0-0.4,0-0.6,0c0-2.7,0-5.3,0-8.9
		c1.9,0.4,3.8,0.8,5.7,1.1c-0.3,1.4-1,2.8-0.8,4.1c0.3,1.5,1.4,2.8,2.2,4.2C716.1,204.3,716.2,204.3,716.2,204.3z"/>
	<path d="M126.8,201.3c-0.6-0.6-1.4-1.6-2.6-3c-0.6,1.5-1,2.6-1.4,3.6c-0.2,0-0.4-0.1-0.5-0.1c0-2.4,0-4.9,0-8.5
		c2.3,0.9,5,1.1,6,2.5C128.9,196.7,127.3,199.3,126.8,201.3z"/>
</g>
</svg>
