<?xml version="1.0" encoding="utf-8"?>
<!-- Generator: Adobe Illustrator 26.3.1, SVG Export Plug-In . SVG Version: 6.00 Build 0)  -->
<svg version="1.0" id="Layer_1" xmlns="http://www.w3.org/2000/svg" xmlns:xlink="http://www.w3.org/1999/xlink" x="0px" y="0px"
	 viewBox="0 0 125 75" enable-background="new 0 0 125 75" xml:space="preserve">
<g>
	<path d="M44.9,32.1c-0.6,1.1-1.3,2.2-1.9,3.3c-2,3.4-3.9,6.9-5.9,10.3c-0.6,1.1-1.3,2.2-2.6,2.6c-0.4,0.1-0.8,0.2-1.2,0.2
		c-1.3,0-2.7,0-4.2,0c0.1-1,0.2-1.9,0.3-2.9c0-0.1,0.4-0.3,0.5-0.3c0.8,0,1.7,0,2.5,0c0.7,0,1.2-0.4,1.6-1c1-1.3,1-2.5,0.3-4
		c-1.3-2.8-2.3-5.8-3.5-8.7c-0.1-0.2-0.2-0.5-0.3-0.8c0.8,0,1.5,0,2.2,0c1.8,0,1.8,0,2.5,1.7c0.6,1.6,1.2,3.3,1.9,4.9
		c0.1,0.2,0.2,0.4,0.3,0.8c0.4-0.8,0.8-1.5,1.2-2.1c0.9-1.6,1.8-3.2,2.7-4.8c0.1-0.2,0.5-0.5,0.7-0.5c3.6,0,7.2,0,10.9,0.1
		c1.2,0,1.4,0.2,2.3,1c1.1-1.1,2.5-1.1,3.9-1.1c1,0,2,0,3,0.1c1.9,0.2,3.1,1.4,3.1,3.3c0,1.5-0.2,3-0.3,4.5c-0.1,1.5-0.3,3-0.4,4.5
		c-1.2,0-2.5,0-3.7,0c0.2-2.6,0.5-5.2,0.7-7.8c0.1-1.2-0.1-1.4-1.3-1.5c-0.7,0-1.3,0-2,0c-0.9,0-1.2,0.4-1.3,1.3
		c-0.3,2.7-0.5,5.3-0.8,8c-1.2,0-2.5,0-3.7,0c0.2-1.8,0.3-3.6,0.5-5.3C53,37,53,36,53.1,35.1c0.1-0.7-0.3-1.1-1-1.1
		c-1.1,0-2.1,0-3.2,0c-0.2,0-0.4,0.4-0.5,0.6c-0.3,2.8-0.5,5.6-0.8,8.4c0,0.1,0,0.1-0.1,0.2c-1.2,0-2.4,0-3.7,0
		c0.3-3.7,0.7-7.4,1-11.1C45,32.1,44.9,32.1,44.9,32.1z"/>
	<path d="M3.9,43.3c-1.3,0-2.5,0-3.9,0c0.1-1.5,0.3-3,0.4-4.5c0.3-3.5,0.7-7,1-10.4c0-0.6,0.2-0.8,0.8-0.8c3.5,0,7,0,10.6,0
		c0.6,0,1.1,0.1,1.7,0.2c1.4,0.3,2.4,1.4,2.3,2.8c0,1.5-0.1,2.9-0.3,4.4c-0.3,1.9-1.6,2.9-3.5,3.2c1.1,1.7,2.1,3.3,3.3,5.1
		c-1.5,0-2.8,0-4.1,0c-0.2,0-0.4-0.3-0.5-0.4c-0.8-1.4-1.6-2.8-2.4-4.2c-0.2-0.4-0.4-0.5-0.9-0.5c-1.1,0-2.2,0-3.2,0
		c-0.6,0-0.7,0.2-0.7,0.7C4.2,40.3,4,41.8,3.9,43.3z M4.7,34.7c2.4,0,4.8,0,7.1,0c0.5,0,0.8-0.4,0.9-0.9c0.1-0.6,0.1-1.2,0.2-1.7
		c0-0.7-0.3-1.1-1-1.1c-2.1,0-4.2,0-6.3,0c-0.2,0-0.5,0.2-0.5,0.3C4.9,32.4,4.8,33.5,4.7,34.7z"/>
	<path d="M29.5,43.3c-0.4,0-0.8,0-1.2,0c-2.4,0-4.8,0-7.2,0c-0.6,0-1.1,0-1.7-0.2c-1.3-0.3-2.2-1-2.4-2.4c-0.1-0.7-0.1-1.5,0-2.3
		c0.2-1.6,1.4-2.6,3.1-2.7c1.9-0.1,3.8,0,5.7,0c0.4,0,0.8,0,0.8-0.6c0-0.6,0.1-1.3-0.7-1.4c-1.3-0.1-2.6,0-3.9,0c0,0-0.1,0-0.1,0
		c-1.2,1.1-2.6,0.4-4.1,0.7c0-0.3,0-0.6,0.1-0.8c0.5-1.7,1.6-2.8,3.3-2.9c2-0.1,4.1-0.1,6.1,0c2,0.1,3.1,1.7,3,3.8
		c-0.2,2.4-0.4,4.8-0.6,7.2C29.6,42.3,29.6,42.7,29.5,43.3z M26.4,38.3c-1.7,0-3.3,0-4.9,0c-0.7,0-0.9,0.5-0.9,1.1
		c0,0.6,0.3,0.9,0.9,0.9c1.4,0,2.9,0,4.3,0c0.2,0,0.4-0.2,0.5-0.3C26.3,39.5,26.3,38.9,26.4,38.3z"/>
	<path d="M66.8,34.5c0.1-1.9,1.5-3.5,3.4-3.6c2-0.1,4-0.1,6,0c1.9,0.1,3,1.5,3,3.4c-0.1,2.2-0.3,4.4-0.5,6.6
		c-0.1,0.8-0.1,1.6-0.2,2.4c-0.1,0-0.3,0.1-0.4,0.1c-2.8,0-5.7,0-8.5,0c-0.8,0-1.6-0.3-2.4-0.7c-0.9-0.4-1.2-1.3-1.3-2.3
		c-0.4-2.9,1-4.5,3.9-4.5c1.6,0,3.3,0,4.9,0c0.3,0,0.7-0.2,0.8-0.4c0.1-0.5,0.4-1.4-0.4-1.5c-1.4-0.2-2.9,0-4.4,0
		C69.6,35,68.2,34.2,66.8,34.5z M75.2,40.3c0.1-0.7,0.1-1.3,0.2-1.9c-0.2,0-0.4-0.1-0.5-0.1c-1.5,0-2.9,0-4.4,0
		c-0.7,0-0.9,0.4-0.9,1.1c0,0.6,0.3,0.9,0.9,0.9C72,40.3,73.5,40.3,75.2,40.3z"/>
	<path d="M124.8,38.3c-3.2,0-6.3,0-9.4,0c0,0.3-0.1,0.6-0.1,0.9c-0.1,0.7,0.2,1.1,0.9,1.1c1.3,0,2.5,0,3.8,0c0.1,0,0.3,0,0.4-0.1
		c1.2-1.1,2.7-0.3,4-0.6c0,1.4-1,2.9-2.4,3.3c-0.7,0.2-1.5,0.3-2.2,0.3c-1.8,0-3.6,0.1-5.4-0.2c-1.7-0.2-2.7-1.4-2.6-3.2
		c0.1-2,0.3-4.1,0.6-6c0.3-1.8,1.7-3,3.6-3.1c2-0.1,4.1-0.1,6.1,0c1.7,0.1,2.9,1.2,3,2.9C125.1,35.2,124.9,36.8,124.8,38.3z
		 M115.7,35.8c1.8,0,3.5,0,5.3,0c0.1,0,0.2-0.1,0.3-0.2c0.5-0.8,0-1.8-1-1.9c-1,0-2,0-3,0C115.9,33.8,115.5,34.2,115.7,35.8z"/>
	<path d="M106.3,43.3c0.2-1.9,0.3-3.7,0.5-5.5c0.1-0.9,0.2-1.9,0.2-2.8c0.1-0.6-0.3-1-0.9-1c-1.3,0-2.7,0-4.1,0
		c-0.1,1.2-0.2,2.3-0.3,3.5c-0.2,1.8-0.3,3.5-0.5,5.3c0,0.2-0.3,0.5-0.4,0.5c-1.1,0-2.2,0-3.4,0c0.4-4.2,0.8-8.4,1.2-12.6
		c1.2,0,2.3,0,3.5,0c1.9,0,3.8,0,5.6,0.1c2,0.1,3.1,1.4,3.1,3.4c-0.1,2-0.3,4-0.5,6.1c-0.1,0.8-0.1,1.7-0.2,2.5
		c0,0.2-0.2,0.5-0.4,0.5C108.6,43.4,107.5,43.3,106.3,43.3z"/>
	<path d="M81,30.8c2.7,0,5.2-0.1,7.7,0c2.5,0.2,3.6,1.6,3.2,4.3c-1.2,0-2.4,0-3.5,0C88,34.1,88,34,86.8,34c-0.1,0-0.3,0-0.4,0
		c-2,0-2,0-2.1,2c-0.2,2.3-0.4,4.5-0.6,6.8c0,0.2-0.2,0.5-0.4,0.5c-1.1,0-2.2,0-3.4,0C80.2,39.1,80.6,35,81,30.8z"/>
	<path d="M93.4,30.8c1.2,0,2.4,0,3.7,0c-0.4,4.2-0.8,8.3-1.2,12.5c-1.2,0-2.5,0-3.7,0C92.6,39.1,93,35,93.4,30.8z"/>
	<path d="M93.8,26.5c1.9,0,3.6,0,5.4,0c-0.5,1.8-3.3,3.3-5.7,3C93.6,28.5,93.7,27.5,93.8,26.5z"/>
</g>
</svg>
