<?xml version="1.0" encoding="utf-8"?>
<!-- Generator: Adobe Illustrator 26.3.1, SVG Export Plug-In . SVG Version: 6.00 Build 0)  -->
<svg version="1.0" id="Layer_1" xmlns="http://www.w3.org/2000/svg" xmlns:xlink="http://www.w3.org/1999/xlink" x="0px" y="0px"
	 viewBox="0 0 125 75" enable-background="new 0 0 125 75" xml:space="preserve">
<g>
	<path d="M82.3,37.4c-0.3,1.6-0.6,3.2-0.9,4.8c-0.2,1.1-0.3,1.1-1.4,1.1c-0.6,0-1.2,0-1.8,0c-1,0-1.2-0.2-1-1.1
		c0.4-2.3,0.9-4.5,1.4-6.8c0.2-1,0.4-2,0.6-3c0.1-0.6,0.5-0.9,1.1-0.9c1,0,2,0,3,0c0.7,0,1.2,0.2,1.5,1c0.4,1.3,0.9,2.5,1.4,3.7
		c0.1,0.2,0.2,0.5,0.3,0.8c1.1-1.4,2.1-2.6,3.1-3.9c1.6-1.9,0.9-1.6,3.4-1.7c0.9,0,1.7,0,2.6,0c0.8,0,1,0.2,0.8,1
		c-0.6,3-1.1,6-1.7,8.9c-0.4,2.1,0,1.9-2.4,1.9c-0.4,0-0.8,0-1.2,0c-0.8,0-0.9-0.2-0.8-1c0.3-1.4,0.5-2.7,0.8-4.1
		c0.1-0.3,0.1-0.6,0-0.9c-0.2,0.2-0.4,0.4-0.5,0.6c-1.2,1.5-2.3,3.1-3.5,4.6c-0.3,0.4-0.8,0.6-1.2,0.7c-0.8,0.2-1.2-0.2-1.5-1
		c-0.5-1.5-1.1-3-1.6-4.5c-0.1-0.2-0.2-0.3-0.2-0.5C82.4,37.4,82.4,37.4,82.3,37.4z"/>
	<path d="M71.8,36.8c0.1-0.8,0.3-1.5,0.4-2.2c0.1-0.7,0.3-1.4,0.4-2.1c0.1-0.7,0.5-0.9,1.1-0.9c0.7,0,1.4,0,2,0c1.1,0,1.2,0.2,1,1.2
		c-0.3,1.8-0.7,3.5-1,5.3c-0.3,1.4-0.6,2.8-0.8,4.3c-0.2,0.9-0.4,1.1-1.3,1.1c-2.7,0-2,0.4-3.4-1.9c-0.7-1.1-1.3-2.2-2.1-3.5
		c-0.3,1.5-0.5,2.8-0.8,4.2c-0.2,1.1-0.3,1.2-1.4,1.2c-0.8,0-1.5,0-2.3,0c-0.6,0-0.8-0.3-0.7-0.8c0.6-3.3,1.3-6.7,1.9-10
		c0.1-0.7,0.5-1,1.2-1c2.9,0.1,2.2-0.3,3.7,2c0.6,1,1.2,2.1,1.9,3.1C71.6,36.7,71.6,36.8,71.8,36.8z"/>
	<path d="M123.1,37.6c0.9,0.4,1.1,1.2,0.9,2.3c-0.2,0.9-0.3,1.8-0.5,2.7c-0.1,0.5-0.4,0.8-0.9,0.8c-0.9,0-1.9,0-2.8,0
		c-0.6,0-0.7-0.2-0.6-0.8c0.1-0.8,0.3-1.7,0.4-2.5c0.1-0.7,0-0.9-0.7-0.9c-2.4-0.1-2.4-0.1-2.9,2.3c-0.3,1.8-0.3,1.8-2.2,1.9
		c-0.5,0-1.1,0-1.6,0c-0.8,0-0.9-0.2-0.8-1c0.4-2.3,0.9-4.5,1.3-6.8c0.2-1,0.4-2,0.6-3.1c0.1-0.7,0.5-1,1.2-1c1.1,0,2.2,0,3.3,0
		c1.7,0,3.3,0,5,0c1.7,0,2.3,0.7,2.1,2.4c-0.1,0.7-0.2,1.4-0.5,2C124.2,36.5,123.6,37.1,123.1,37.6z M116.9,36.8c0.5,0,1,0,1.4,0
		c2,0,2,0,2.3-2c0,0,0,0,0-0.1c0.1-0.5-0.1-0.8-0.6-0.8c-0.7,0-1.5,0-2.2,0c-0.2,0-0.5,0.2-0.5,0.4C117.1,35.1,117,35.9,116.9,36.8z
		"/>
	<path d="M56.6,31.6c0.9,0,1.8,0,2.8,0c0.6,0,1,0.2,1.1,0.9c0.4,3.3,0.8,6.5,1.3,9.8c0.1,0.9-0.1,1.1-0.9,1.1c-0.8,0-1.6,0-2.5,0
		c-0.6,0-0.8-0.3-0.9-0.8C57.2,41,57.2,41,55.6,41c-0.8,0-1.6,0-2.5,0c-0.3,0-0.7,0.3-0.8,0.5c-0.5,1.6-1.5,2.1-3.1,1.9
		c-0.6-0.1-1.2,0-1.7,0c-0.7,0-0.9-0.3-0.5-0.9c1.9-3.4,3.8-6.9,5.7-10.3c0.2-0.3,0.7-0.6,1-0.6C54.7,31.5,55.6,31.6,56.6,31.6z
		 M56.4,33.9c-0.1,0-0.1,0-0.2,0c-0.8,1.5-1.5,3-2.3,4.5c1.1,0,2,0,3,0C56.8,36.8,56.6,35.3,56.4,33.9z"/>
	<path d="M108.3,43.4c-0.3,0-0.6,0-0.9,0c-1.1,0-1.2-0.1-1.3-1.2c-0.1-1.2-0.1-1.2-1.3-1.2c-0.9,0-1.9,0-2.8,0c-0.5,0-0.8,0.1-1,0.6
		c-0.4,1.6-1.5,2.1-3.1,1.8c-0.5-0.1-1,0-1.5,0c-0.9,0-1.1-0.3-0.6-1c0.8-1.4,1.6-2.9,2.4-4.3c1-1.9,2.1-3.7,3.1-5.6
		c0.3-0.6,0.7-0.8,1.4-0.8c1.8,0,3.5,0,5.3,0c0.9,0,1.1,0.2,1.2,1.1c0.4,3.2,0.8,6.4,1.2,9.5c0.1,1.1,0,1.2-1.1,1.2
		C108.9,43.4,108.6,43.4,108.3,43.4z M102.6,38.3c1,0,2,0,3,0c-0.2-1.6-0.3-3-0.5-4.5c-0.1,0-0.1,0-0.2,0
		C104.1,35.3,103.4,36.8,102.6,38.3z"/>
	<path d="M0,30.1c1.7,0.7,3.2,1.3,4.8,2c3.1,1.3,6.3,2.6,9.4,3.9c0.5,0.2,0.9,0.2,1.4,0c4.5-1.9,9-3.7,13.4-5.6
		c0.2-0.1,0.5-0.2,0.8-0.3c0,1.1,0,2.1,0,3.2c0,0.1-0.2,0.4-0.4,0.4c-4.7,2-9.4,3.9-14.1,5.8c-0.3,0.1-0.7,0.1-1,0
		c-4.6-1.9-9.1-3.8-13.7-5.6C0.2,33.6,0,33.4,0,32.8C0.1,31.9,0,31.1,0,30.1z"/>
	<path d="M50.9,31.6c-0.3,0.4-0.4,0.7-0.6,0.9c-1.6,1.9-3.1,3.9-4.8,5.7c-0.8,0.9-1.2,1.8-1.4,2.9c-0.1,0.6-0.2,1.1-0.3,1.7
		c-0.1,0.5-0.3,0.7-0.9,0.7c-1,0-1.9,0-2.9,0c-0.6,0-0.8-0.3-0.7-0.8c0.2-0.8,0.4-1.6,0.5-2.4c0-0.4,0-0.8-0.1-1.1
		c-1.1-2.2-2.3-4.4-3.4-6.6c-0.4-0.8-0.4-0.9,0.6-0.9c0.9,0,1.8,0,2.7,0c0.6,0,1,0.2,1.2,0.8c0.5,1.1,1.1,2.2,1.9,3.6
		c0.1-0.2,0.1-0.5,0.3-0.7c0.9-1.1,1.7-2.1,2.6-3.2c0.2-0.2,0.4-0.4,0.6-0.4C47.6,31.5,49.1,31.6,50.9,31.6z"/>
	<path d="M14.1,44.9c-2-0.8-3.9-1.6-5.8-2.4c-2.6-1.1-5.1-2.1-7.7-3.2C0.2,39.2,0,38.9,0,38.4c0-0.9,0-1.8,0-2.8
		C1,36,1.8,36.4,2.7,36.7c3.6,1.5,7.2,3,10.8,4.4c0.5,0.2,0.7,0.4,0.7,1C14,43,14.1,43.9,14.1,44.9z"/>
	<path d="M15.8,44.8c0-1,0-2,0-3c0-0.2,0.3-0.5,0.5-0.6c4.1-1.7,8.2-3.4,12.3-5.1c0.4-0.2,0.8-0.3,1.2-0.5c0,1.1,0,2.1,0,3.1
		c0,0.2-0.2,0.4-0.3,0.5c-4.5,1.9-9,3.7-13.4,5.6C16.1,44.8,16,44.8,15.8,44.8z"/>
</g>
</svg>
